<svg width="107" height="24" viewBox="0 0 107 24" fill="none" xmlns="http://www.w3.org/2000/svg">
<path d="M12.8547 0.544078C5.49317 -0.151174 -0.641409 5.98341 0.0538436 13.3449C0.585507 18.8251 5.00241 23.242 10.4826 23.7737C17.8441 24.5098 24.0196 18.3344 23.2835 10.9729C22.7518 5.53354 18.3349 1.11664 12.8547 0.544078ZM17.8441 12.9768C17.476 15.7578 15.2676 17.9663 12.4866 18.3344C8.43777 18.866 5.0024 15.4307 5.49317 11.3409C5.86125 8.55993 8.06969 6.35148 10.8507 5.98341C14.9404 5.49264 18.3758 8.928 17.8441 12.9768Z" fill="#005BFF"/>
<path d="M44.7136 17.8843H35.43L47.2493 2.30248C47.6582 1.77082 47.2902 1.03467 46.6358 1.03467H29.5408C27.864 1.03467 26.5144 2.58876 26.8825 4.30644C27.1278 5.57426 28.3548 6.474 29.6635 6.474H37.2703L25.4102 22.0558C25.0421 22.5875 25.3693 23.2827 26.0236 23.2827H44.5909C45.8997 23.2827 47.0857 22.4239 47.372 21.1152C47.74 19.3975 46.3904 17.8843 44.7136 17.8843Z" fill="#005BFF"/>
<path d="M103.687 1.07564C102.419 1.36192 101.561 2.50704 101.561 3.81575V12.8949L86.8376 1.19833C86.306 0.789355 85.5698 1.15743 85.5698 1.81179V20.5427C85.5698 21.8514 86.4287 22.9965 87.6965 23.2828C89.4551 23.6509 91.0092 22.3013 91.0092 20.6245V11.4635L105.732 23.1601C106.264 23.5691 107 23.201 107 22.5467V3.73395C107 2.05717 105.446 0.707561 103.687 1.07564Z" fill="#005BFF"/>
<path d="M65.3258 0.503418C56.2875 0.503418 49.0078 5.73826 49.0078 12.1591C49.0078 18.6209 56.3284 23.8148 65.3258 23.8148C74.3641 23.8148 81.6438 18.58 81.6438 12.1591C81.6438 5.73826 74.3232 0.503418 65.3258 0.503418ZM65.3258 18.3755C59.1094 18.3755 54.4471 15.1037 54.4471 12.1591C54.4471 9.21452 59.1094 5.94275 65.3258 5.94275C71.5422 5.94275 76.2044 9.21452 76.2044 12.1591C76.2044 15.1037 71.5422 18.3755 65.3258 18.3755Z" fill="#005BFF"/>
</svg>
