<svg width="39" height="39" viewBox="0 0 39 39" fill="none" xmlns="http://www.w3.org/2000/svg">
<path d="M19.4253 38.4483C9.12703 38.4483 0.701172 30.0224 0.701172 19.7241C0.701172 9.42586 9.12703 1 19.4253 1C29.7236 1 38.1494 9.42586 38.1494 19.7241C38.1494 30.0224 29.8276 38.4483 19.4253 38.4483Z" stroke="#001A34" stroke-miterlimit="10" stroke-linecap="round"/>
<path d="M28.9955 17.9559C26.4989 21.1806 26.2909 20.8686 28.2673 22.741C30.2437 24.5094 30.6598 25.4456 30.6598 25.5496C30.6598 25.5496 31.492 27.0059 29.7236 27.0059H26.4989C25.7707 27.11 24.9386 26.4858 24.9386 26.4858C23.6903 25.6536 22.546 23.4692 21.7138 23.7812C21.7138 23.7812 20.7776 24.0933 20.8817 25.9657C20.8817 26.3818 20.6736 26.5898 20.6736 26.5898C20.6736 26.5898 20.4656 26.7979 20.0495 26.9019H18.5932C15.3684 27.11 12.5598 24.1973 12.5598 24.1973C12.5598 24.1973 9.43913 20.9726 6.83856 14.7312C6.63051 14.3151 6.83856 14.1071 6.83856 14.1071C6.83856 14.1071 7.0466 13.899 7.56672 13.899H10.9995C11.3115 13.899 11.5196 14.1071 11.5196 14.1071C11.5196 14.1071 11.7276 14.2111 11.8317 14.5232C12.3518 15.9795 13.0799 17.2278 13.0799 17.2278C14.3282 19.8284 15.1604 20.2444 15.6805 20.0364C15.6805 20.0364 16.3047 19.6203 16.2006 16.4996C16.2006 15.3554 15.7845 14.8352 15.7845 14.8352C15.4725 14.4192 14.9524 14.3151 14.7443 14.3151C14.5363 14.3151 14.8483 13.795 15.2644 13.587C15.8886 13.2749 16.9288 13.2749 18.2811 13.2749C19.3213 13.2749 19.6334 13.3789 19.9455 13.4829C21.1937 13.795 20.7776 14.8352 20.7776 17.5398C20.7776 18.372 20.5696 19.6203 21.1937 19.9324C21.5058 20.1404 22.1299 19.9324 23.6903 17.2278C23.6903 17.2278 24.4184 15.8755 25.0426 14.4192C25.1466 14.1071 25.3547 14.0031 25.3547 14.0031C25.3547 14.0031 25.5627 13.899 25.8748 13.899H29.5156C30.6598 13.795 30.7638 14.3151 30.7638 14.3151C31.0759 14.7312 30.5558 15.9795 28.9955 17.9559Z" stroke="#001A34" stroke-miterlimit="10" stroke-linecap="round"/>
</svg>
