<svg width="39" height="39" viewBox="0 0 39 39" fill="none" xmlns="http://www.w3.org/2000/svg">
<path d="M19.2759 38.4483C8.97762 38.4483 0.551758 30.0224 0.551758 19.7241C0.551758 9.42586 8.97762 1 19.2759 1C29.5742 1 38 9.42586 38 19.7241C38 30.0224 29.5742 38.4483 19.2759 38.4483Z" stroke="#001A34" stroke-miterlimit="10" stroke-linecap="round"/>
<path d="M28.1178 15.2514C27.9098 14.4192 27.2856 13.795 26.4534 13.587C24.9971 13.1709 19.2759 13.1709 19.2759 13.1709C19.2759 13.1709 13.5546 13.1709 12.0983 13.587C11.2661 13.795 10.642 14.4192 10.4339 15.2514C10.0178 16.7077 10.0178 19.7243 10.0178 19.7243C10.0178 19.7243 10.0178 22.741 10.4339 24.1973C10.642 25.0295 11.2661 25.6537 12.0983 25.8617C13.5546 26.2778 19.2759 26.2778 19.2759 26.2778C19.2759 26.2778 24.9971 26.2778 26.4534 25.8617C27.2856 25.6537 27.9098 25.0295 28.1178 24.1973C28.5339 22.741 28.5339 19.7243 28.5339 19.7243C28.5339 19.7243 28.5339 16.7077 28.1178 15.2514ZM17.4034 22.4289V16.9157L22.1885 19.6203L17.4034 22.4289Z" stroke="#001A34" stroke-miterlimit="10" stroke-linecap="round"/>
</svg>
