<svg width="39" height="39" viewBox="0 0 39 39" fill="none" xmlns="http://www.w3.org/2000/svg">
<path d="M19.7241 38.4483C9.42586 38.4483 1 30.0224 1 19.7241C1 9.42586 9.42586 1 19.7241 1C30.0224 1 38.4483 9.42586 38.4483 19.7241C38.4483 30.0224 30.0224 38.4483 19.7241 38.4483Z" stroke="#001A34" stroke-miterlimit="10" stroke-linecap="round"/>
<path d="M15.7713 19.7244C15.7713 17.5399 17.5396 15.8755 19.6201 15.8755C21.8046 15.8755 23.469 17.6439 23.469 19.7244C23.469 21.9089 21.7006 23.5732 19.6201 23.5732C17.5396 23.5732 15.7713 21.8049 15.7713 19.7244ZM15.8753 10.3623C14.8351 10.3623 14.2109 10.5704 13.5868 10.7784C12.9626 10.9865 12.4425 11.2985 11.9224 11.8186C11.4023 12.3388 11.0902 12.8589 10.8822 13.483C10.6741 14.1072 10.4661 14.7313 10.4661 15.7715C10.4661 16.8117 10.3621 17.1238 10.3621 19.6204C10.3621 22.1169 10.3621 22.533 10.4661 23.4692C10.4661 24.5095 10.6741 25.1336 10.8822 25.7577C11.0902 26.3819 11.4023 26.902 11.9224 27.4221C12.4425 27.9422 12.9626 28.2543 13.5868 28.4623C14.2109 28.6704 14.8351 28.8784 15.8753 28.8784C16.9155 28.8784 17.2276 28.9824 19.7241 28.9824C22.2207 28.9824 22.6368 28.9824 23.573 28.8784C24.6132 28.8784 25.2373 28.6704 25.8615 28.4623C26.4856 28.2543 27.0057 27.9422 27.5259 27.4221C28.046 26.902 28.358 26.3819 28.5661 25.7577C28.7741 25.1336 28.9822 24.5095 28.9822 23.4692C28.9822 22.429 29.0862 22.1169 29.0862 19.6204C29.0862 17.1238 29.0862 16.7077 28.9822 15.7715C28.9822 14.7313 28.7741 14.1072 28.5661 13.483C28.358 12.8589 28.046 12.3388 27.5259 11.8186C27.0057 11.2985 26.4856 10.9865 25.8615 10.7784C25.2373 10.5704 24.6132 10.3623 23.573 10.3623C22.5328 10.3623 22.2207 10.2583 19.7241 10.2583C17.1236 10.3623 16.8115 10.3623 15.8753 10.3623Z" stroke="#001A34" stroke-miterlimit="10" stroke-linecap="round"/>
<path d="M23.573 14.7312C23.573 15.3553 24.0931 15.8754 24.7172 15.8754C25.3414 15.8754 25.8615 15.3553 25.8615 14.7312C25.8615 14.107 25.3414 13.5869 24.7172 13.5869C24.0931 13.5869 23.573 14.107 23.573 14.7312Z" fill="#001A34"/>
</svg>
